# xmcd CD database file
#
# Track frame offsets:
#	150
#	15100
#	29399
#	46842
#	61782
#	73001
#	83782
#	94191
#	109737
#	121201
#	138450
#	152943
#	170578
#	186941
#	201949
#	215421
#	225489
#	240109
#	251334
#	262329
#	279442
#
# Disc length: 3912 seconds
#
# Revision: 0
# Processed by: cddbd v1.5.1PL0 Copyright (c) Steve Scherf et al.
# Submitted via: CDex 1.51
#
DISCID=1c0f4615
DTITLE=engelbert humperdinck - éxitos engelbert
DYEAR=2004
DGENRE=balada
TTITLE0=liberame
TTITLE1=la forma en que se acostumbra
TTITLE2=me estas matando suavemente con tu cancion
TTITLE3=cuando calienta el sol
TTITLE4=la sombra de tu sonrisa
TTITLE5=something
TTITLE6=todo el mundo habla
TTITLE7=de esta manera te quiero
TTITLE8=que hacer durante la noche
TTITLE9=frescura de amor
TTITLE10=a tiempo
TTITLE11=despues del amor
TTITLE12=no puedo dejar de verte
TTITLE13=cuando me enamora
TTITLE14=el último vals
TTITLE15=gotas de lluvia sobre mi cabeza
TTITLE16=ojos españoles
TTITLE17=toma mi corazón
TTITLE18=hasta el fin de la tierra
TTITLE19=de aquí a la eternidad
TTITLE20=me olvidarás facilmente
EXTD=YEAR: 2004
EXTT0=
EXTT1=
EXTT2=
EXTT3=
EXTT4=
EXTT5=
EXTT6=
EXTT7=
EXTT8=
EXTT9=
EXTT10=
EXTT11=
EXTT12=
EXTT13=
EXTT14=
EXTT15=
EXTT16=
EXTT17=
EXTT18=
EXTT19=
EXTT20=
PLAYORDER=
